<mxfile host="app.diagrams.net" modified="2021-03-29T08:24:02.133Z" agent="5.0 (Windows NT 10.0; Win64; x64) AppleWebKit/537.36 (KHTML, like Gecko) Chrome/89.0.4389.90 Safari/537.36" etag="lh8bVbTX6PDbEiqNYtcO" version="14.5.3" type="github">
  <diagram id="C5RBs43oDa-KdzZeNtuy" name="Page-1">
    <mxGraphModel dx="1422" dy="772" grid="1" gridSize="10" guides="1" tooltips="1" connect="1" arrows="1" fold="1" page="1" pageScale="1" pageWidth="827" pageHeight="1169" math="0" shadow="0">
      <root>
        <mxCell id="WIyWlLk6GJQsqaUBKTNV-0" />
        <mxCell id="WIyWlLk6GJQsqaUBKTNV-1" parent="WIyWlLk6GJQsqaUBKTNV-0" />
        <mxCell id="BPeHsp67-nthPy58dhx1-5" style="edgeStyle=orthogonalEdgeStyle;rounded=0;orthogonalLoop=1;jettySize=auto;html=1;exitX=1;exitY=0.5;exitDx=0;exitDy=0;entryX=0;entryY=0.5;entryDx=0;entryDy=0;fontSize=12;" edge="1" parent="WIyWlLk6GJQsqaUBKTNV-1" source="BPeHsp67-nthPy58dhx1-0" target="BPeHsp67-nthPy58dhx1-1">
          <mxGeometry relative="1" as="geometry" />
        </mxCell>
        <mxCell id="BPeHsp67-nthPy58dhx1-0" value="QA Intern" style="rounded=0;whiteSpace=wrap;html=1;fontSize=12;" vertex="1" parent="WIyWlLk6GJQsqaUBKTNV-1">
          <mxGeometry y="230" width="120" height="60" as="geometry" />
        </mxCell>
        <mxCell id="BPeHsp67-nthPy58dhx1-6" style="edgeStyle=orthogonalEdgeStyle;rounded=0;orthogonalLoop=1;jettySize=auto;html=1;exitX=1;exitY=0.5;exitDx=0;exitDy=0;entryX=0;entryY=0.5;entryDx=0;entryDy=0;fontSize=12;" edge="1" parent="WIyWlLk6GJQsqaUBKTNV-1" source="BPeHsp67-nthPy58dhx1-1" target="BPeHsp67-nthPy58dhx1-2">
          <mxGeometry relative="1" as="geometry" />
        </mxCell>
        <mxCell id="BPeHsp67-nthPy58dhx1-1" value="Junior QA&amp;nbsp;&lt;span style=&quot;font-family: &amp;quot;open sans&amp;quot;, sans-serif; font-size: 12px; text-align: left;&quot;&gt;Engineer&lt;/span&gt;" style="rounded=0;whiteSpace=wrap;html=1;fontSize=12;" vertex="1" parent="WIyWlLk6GJQsqaUBKTNV-1">
          <mxGeometry x="160" y="230" width="120" height="60" as="geometry" />
        </mxCell>
        <mxCell id="BPeHsp67-nthPy58dhx1-7" style="edgeStyle=orthogonalEdgeStyle;rounded=0;orthogonalLoop=1;jettySize=auto;html=1;exitX=1;exitY=0.5;exitDx=0;exitDy=0;entryX=0;entryY=0.5;entryDx=0;entryDy=0;fontSize=12;" edge="1" parent="WIyWlLk6GJQsqaUBKTNV-1" source="BPeHsp67-nthPy58dhx1-2" target="BPeHsp67-nthPy58dhx1-3">
          <mxGeometry relative="1" as="geometry" />
        </mxCell>
        <mxCell id="BPeHsp67-nthPy58dhx1-2" value="&lt;span style=&quot;font-family: &amp;quot;open sans&amp;quot;, sans-serif; font-size: 12px; text-align: left;&quot;&gt;Middle QA Engineer&lt;/span&gt;" style="rounded=0;whiteSpace=wrap;html=1;fontSize=12;" vertex="1" parent="WIyWlLk6GJQsqaUBKTNV-1">
          <mxGeometry x="330" y="230" width="120" height="60" as="geometry" />
        </mxCell>
        <mxCell id="BPeHsp67-nthPy58dhx1-10" style="edgeStyle=orthogonalEdgeStyle;rounded=0;orthogonalLoop=1;jettySize=auto;html=1;exitX=1;exitY=0.5;exitDx=0;exitDy=0;entryX=0;entryY=0.5;entryDx=0;entryDy=0;fontSize=12;" edge="1" parent="WIyWlLk6GJQsqaUBKTNV-1" source="BPeHsp67-nthPy58dhx1-3" target="BPeHsp67-nthPy58dhx1-4">
          <mxGeometry relative="1" as="geometry" />
        </mxCell>
        <mxCell id="BPeHsp67-nthPy58dhx1-3" value="&lt;span style=&quot;font-family: &amp;quot;open sans&amp;quot;, sans-serif; font-size: 12px; text-align: left;&quot;&gt;Senior QA Engineer&lt;/span&gt;" style="rounded=0;whiteSpace=wrap;html=1;fontSize=12;" vertex="1" parent="WIyWlLk6GJQsqaUBKTNV-1">
          <mxGeometry x="490" y="230" width="120" height="60" as="geometry" />
        </mxCell>
        <mxCell id="BPeHsp67-nthPy58dhx1-4" value="&lt;ol style=&quot;list-style-type: none ; font-family: &amp;#34;open sans&amp;#34; , sans-serif&quot;&gt;&lt;li style=&quot;line-height: 1.5&quot;&gt;&lt;p style=&quot;margin: 0px ; padding: 0px 20px 8px 0px ; border: 0px ; font-stretch: inherit ; line-height: 44px ; font-family: &amp;#34;pt sans&amp;#34; , sans-serif ; vertical-align: top ; position: relative&quot;&gt;&lt;font style=&quot;font-size: 12px&quot;&gt;QA&amp;nbsp;TechLead&lt;/font&gt;&lt;/p&gt;&lt;/li&gt;&lt;/ol&gt;" style="rounded=0;whiteSpace=wrap;html=1;fontSize=12;" vertex="1" parent="WIyWlLk6GJQsqaUBKTNV-1">
          <mxGeometry x="660" y="235" width="140" height="50" as="geometry" />
        </mxCell>
      </root>
    </mxGraphModel>
  </diagram>
</mxfile>
